<svg id="Layer_1" data-name="Layer 1" xmlns="http://www.w3.org/2000/svg" xmlns:xlink="http://www.w3.org/1999/xlink" viewBox="0 0 1744.82 1997.18"><defs><style>.cls-1{fill:url(#linear-gradient);}.cls-2{fill:url(#linear-gradient-2);}.cls-3{fill:url(#linear-gradient-3);}.cls-4{fill:url(#linear-gradient-4);}</style><linearGradient id="linear-gradient" x1="127.59" y1="1000.75" x2="1872.41" y2="1000.75" gradientUnits="userSpaceOnUse"><stop offset="0" stop-color="#83d5ff"/><stop offset="1" stop-color="#e882fc"/></linearGradient><linearGradient id="linear-gradient-2" x1="136.17" y1="1000.86" x2="1873" y2="1000.86" xlink:href="#linear-gradient"/><linearGradient id="linear-gradient-3" x1="136.17" y1="1000.86" x2="1877.17" y2="1000.86" xlink:href="#linear-gradient"/><linearGradient id="linear-gradient-4" x1="142.08" y1="999.96" x2="1877.13" y2="999.96" xlink:href="#linear-gradient"/></defs><title>icon</title><path class="cls-1" d="M1844,480.67,1028.39,9.77a56.74,56.74,0,0,0-56.78,0L156,480.67a56.78,56.78,0,0,0-28.39,49.18v941.8A56.78,56.78,0,0,0,156,1520.83l815.63,470.9a56.74,56.74,0,0,0,56.78,0L1844,1520.83a56.78,56.78,0,0,0,28.39-49.18V529.85A56.78,56.78,0,0,0,1844,480.67Zm-122.78,935.65-720.93,416.23L279.38,1416.32V583.86l720.93-416.23,720.93,416.23Z" transform="translate(-127.59 -2.16)"/><path class="cls-2" d="M629.61,1265.06A72.75,72.75,0,0,1,578,1243.68L385.55,1051.25a73,73,0,0,1,0-103.24l190-190A73,73,0,0,1,678.76,861.28L540.41,999.63l140.82,140.82a73,73,0,0,1-51.62,124.61Z" transform="translate(-127.59 -2.16)"/><path class="cls-3" d="M1377.17,1265.06a72.75,72.75,0,0,0,51.62-21.38l192.44-192.43a73,73,0,0,0,0-103.24l-190-190A73,73,0,1,0,1328,861.28l138.34,138.35-140.82,140.82a73,73,0,0,0,51.62,124.61Z" transform="translate(-127.59 -2.16)"/><path class="cls-4" d="M865,1343.7A75,75,0,0,1,798.11,1235L1068.83,697.5a75,75,0,0,1,134,67.48L932.08,1302.43A75,75,0,0,1,865,1343.7Z" transform="translate(-127.59 -2.16)"/></svg>